<svg width="25" height="22" viewBox="0 0 25 22" fill="none" xmlns="http://www.w3.org/2000/svg">
<path fill-rule="evenodd" clip-rule="evenodd" d="M17.25 17.4287C17.7674 17.2249 18.2688 16.9827 18.75 16.7041V20.5C18.75 20.9142 18.4142 21.25 18 21.25C17.5858 21.25 17.25 20.9142 17.25 20.5V17.4287ZM18.3525 9.13844L13.1025 6.33813C12.7381 6.15199 12.2917 6.29232 12.0994 6.65349C11.907 7.01466 12.0397 7.46336 12.3975 7.66187L16.7812 10L18.375 9.15063L18.3525 9.13844ZM24.3525 6.33813L13.1025 0.338125C12.8821 0.220791 12.6179 0.220791 12.3975 0.338125L1.1475 6.33813C0.902987 6.46843 0.750234 6.72293 0.750234 7C0.750234 7.27707 0.902987 7.53157 1.1475 7.66187L3.75 9.05031V13.5897C3.74922 13.9581 3.8848 14.3137 4.13063 14.5881C5.35875 15.9559 8.11031 18.25 12.75 18.25C14.2884 18.2627 15.8153 17.9841 17.25 17.4287V10.2503L16.7812 10L12.75 12.1497L4.85906 7.9375L3.09375 7L12.75 1.85031L22.4062 7L20.6456 7.9375H20.64L18.375 9.15063C18.6071 9.28463 18.7501 9.5323 18.75 9.80031V16.7041C19.728 16.1395 20.6118 15.4256 21.3694 14.5881C21.6152 14.3137 21.7508 13.9581 21.75 13.5897V9.05031L24.3525 7.66187C24.597 7.53157 24.7498 7.27707 24.7498 7C24.7498 6.72293 24.597 6.46843 24.3525 6.33813Z" fill="#121417"/>
</svg>
