<svg width="20" height="20" viewBox="0 0 20 20" fill="none" xmlns="http://www.w3.org/2000/svg">
<path fill-rule="evenodd" clip-rule="evenodd" d="M11.375 10C11.375 10.6213 10.8713 11.125 10.25 11.125C9.62868 11.125 9.125 10.6213 9.125 10C9.125 9.37868 9.62868 8.875 10.25 8.875C10.8713 8.875 11.375 9.37868 11.375 10ZM6.125 8.875C5.50368 8.875 5 9.37868 5 10C5 10.6213 5.50368 11.125 6.125 11.125C6.74632 11.125 7.25 10.6213 7.25 10C7.25 9.37868 6.74632 8.875 6.125 8.875ZM14.375 8.875C13.7537 8.875 13.25 9.37868 13.25 10C13.25 10.6213 13.7537 11.125 14.375 11.125C14.9963 11.125 15.5 10.6213 15.5 10C15.5 9.37868 14.9963 8.875 14.375 8.875ZM20 10C20.0007 13.424 18.2053 16.5975 15.27 18.3605C12.3347 20.1234 8.68978 20.2174 5.6675 18.6081L2.47531 19.6722C1.93626 19.852 1.34191 19.7117 0.94011 19.3099C0.538308 18.9081 0.398045 18.3137 0.577812 17.7747L1.64188 14.5825C-0.26326 11.0006 0.248742 6.61332 2.92747 3.56638C5.60619 0.519438 9.89177 -0.550316 13.6882 0.880322C17.4846 2.31096 19.9983 5.94298 20 10ZM18.5 10C18.499 6.53154 16.3287 3.43408 13.069 2.24891C9.80932 1.06374 6.15643 2.04399 3.92801 4.70188C1.69959 7.35977 1.37157 11.1276 3.10719 14.1306C3.2147 14.3167 3.23723 14.5399 3.16906 14.7437L2 18.25L5.50625 17.0809C5.58262 17.0549 5.66275 17.0416 5.74344 17.0416C5.87516 17.0418 6.0045 17.0767 6.11844 17.1428C8.67111 18.6197 11.818 18.6217 14.3725 17.148C16.9271 15.6743 18.5007 12.9491 18.5 10Z" fill="#637D87"/>
</svg>
